<svg width="45" height="59.00000000000001" xmlns="http://www.w3.org/2000/svg">
    <g fill="#e2c344">
        <title>Layer 1</title>
        <path stroke="#666666" stroke-width="2" stroke-dasharray="null" stroke-linejoin="null"
              stroke-linecap="null"
              d="m17.67095,5.88641c0,-2.56524 2.26587,-4.64309 5.06322,-4.64309c2.79737,0 5.06322,2.07785 5.06322,4.64309c0,2.56524 -2.26586,4.64309 -5.06322,4.64309c-2.79737,0 -5.06322,-2.07785 -5.06322,-4.64309zm17.02342,13.1429l0,-2.3449c0,-2.46717 -2.17979,-4.46752 -4.87177,-4.46752l-14.19255,0c-2.69042,0 -4.87177,2.00035 -4.87177,4.46752l0,2.3449c-0.00471,0.05322 -0.00784,0.1079 -0.00784,0.16327l0,13.50615c0,1.04945 0.92713,1.89964 2.07155,1.89964c1.14283,0 2.07232,-0.8502 2.07232,-1.89964l0,-13.30618l1.38913,0l0,15.20727l0.01019,0l0,21.48742c0,1.39687 1.23697,2.5319 2.7618,2.5319c1.52561,0 2.7618,-1.1336 2.7618,-2.5319l0,-21.48742l1.82211,0l0,21.48742c0,1.39687 1.23774,2.5319 2.76179,2.5319c1.52561,0 2.76179,-1.1336 2.76179,-2.5319l0,-21.48742l0.00863,0l0,-15.20727l1.38913,0l0,13.30546c0,1.04946 0.92948,1.90037 2.07232,1.90037c1.14441,0 2.07155,-0.85092 2.07155,-1.90037l0,-13.50615c-0.00078,-0.05609 -0.00548,-0.10934 -0.01019,-0.16256l0,0l0.00001,0l0,0.00001z"
              id="svg_3"/>
    </g>
</svg>