<svg width="54.99999999999999" height="47" xmlns="http://www.w3.org/2000/svg">
    <g>
        <title>Layer 1</title>
        <g fill="#1d1e1f" id="layer1" stroke="null">
            <path fill="#1d1e1f" fill-rule="evenodd" stroke-width="1.22297" stroke-miterlimit="4"
                  d="m15.57569,0.54583c-2.45698,-0.0886 -4.57425,0.72172 -5.87993,3.63195l-4.71428,12.03129c-3.43487,0.96521 -4.93015,3.50817 -5.00937,5.59455l0,15.75347l4.52983,0l0,5.30129c-0.21952,5.05237 7.90416,5.24764 8.08583,-0.05264l0.09591,-5.20353l29.3849,0l0.09591,5.20353c0.18167,5.30028 8.31272,5.10501 8.0932,0.05264l0,-5.30129l4.52245,0l0,-15.75347c-0.07922,-2.08638 -1.57451,-4.62934 -5.00937,-5.59455l-4.71428,-12.03129c-1.30568,-2.91022 -3.42295,-3.72054 -5.87993,-3.63195l-23.60088,0l0,0l0.00001,0zm0.53856,4.17336c0.20551,-0.00114 0.42215,0.00596 0.64185,0.01504l21.31382,0.06767c1.95074,-0.04639 2.77808,0.00006 3.60764,1.87989l3.39369,9.32425l-35.35336,-0.04512l3.3568,-9.07611c0.52345,-1.81684 1.60101,-2.15761 3.03956,-2.16563l0,0.00001zm-7.42185,15.9565c2.11287,0 3.82896,1.74161 3.82896,3.89513c0,2.15353 -1.7161,3.90265 -3.82896,3.90265c-2.11287,0 -3.82896,-1.74912 -3.82896,-3.90265c0,-2.15353 1.7161,-3.89513 3.82896,-3.89513zm37.58139,0c2.11287,0 3.82158,1.74161 3.82158,3.89513c0,2.15353 -1.70872,3.90265 -3.82158,3.90265c-2.11287,0 -3.82896,-1.74912 -3.82896,-3.90265c0,-2.15353 1.7161,-3.89513 3.82896,-3.89513zm-2.62991,-5.13013l0,0zm0,0c-0.01894,-0.14464 -0.0451,-0.25777 -0.07515,-0.37752c-0.19782,-0.78835 -0.46251,-1.2677 -1.03066,-1.85477c-0.55235,-0.57075 -1.1735,-0.92083 -1.90027,-1.07785c-0.71351,-0.15415 -7.33102,-0.15456 -8.04663,0c-1.3585,0.29341 -2.52293,1.44852 -2.88261,2.85602c-0.01516,0.05931 -0.0305,0.22429 -0.04294,0.43771l13.97828,0.01641l0,0l-0.00002,0zm-6.98914,-10.19304c-1.08922,0.00192 -2.17712,0.5793 -2.73768,1.73988c-0.22446,0.46472 -0.24156,0.53884 -0.24156,1.31858c0,0.7706 0.01554,0.86094 0.23082,1.32406c0.38895,0.83671 0.94139,1.33414 1.83049,1.65781c0.27752,0.10103 0.53567,0.1327 1.04139,0.1149c0.60269,-0.02122 0.72669,-0.05593 1.2239,-0.3064c0.64039,-0.32259 1.11046,-0.802 1.42789,-1.46084c0.18896,-0.3922 0.20398,-0.49742 0.20398,-1.29123c0,-0.8254 -0.00982,-0.88257 -0.24156,-1.36235c-0.55961,-1.15861 -1.64847,-1.73632 -2.73768,-1.73441l0.00001,0z"
                  id="path9347" stroke="null"/>
        </g>
    </g>
</svg>